<?xml version="1.0" encoding="utf-8" ?>
<?xml-stylesheet href="timeline.css" type="text/css" title="some title" alternate="no" media="screen"?>
<svg baseProfile="full" height="100%" preserveAspectRatio="xMidYMid meet" version="1.1" viewBox="0,0,900,1250" width="100%" xmlns="http://www.w3.org/2000/svg" xmlns:ev="http://www.w3.org/2001/xml-events" xmlns:xlink="http://www.w3.org/1999/xlink"><defs /><line stroke="grey" x1="0" x2="50" y1="1438" y2="1438" /><g style="font-size:0.9em;color:black"><text x="3" y="1433">2017</text></g><g style="font-size:1.0em;color:black"><text x="308" y="50">Mon-Fri</text></g><line stroke="grey" x1="50" x2="49" y1="105" y2="50" /><g style="font-size:1.0em;color:black"><text x="98" y="95">morning</text></g><line stroke="grey" x1="200" x2="199" y1="105" y2="70" /><g style="font-size:1.0em;color:black"><text x="263" y="95">afternoon</text></g><line stroke="grey" x1="380" x2="379" y1="105" y2="70" /><g style="font-size:1.0em;color:black"><text x="443" y="95">evening</text></g><line stroke="grey" x1="560" x2="560" y1="105" y2="50" /><g style="font-size:1.0em;color:black"><text x="629" y="50">Sat-Sun</text></g><line stroke="grey" x1="751" x2="751" y1="105" y2="70" /><line stroke="grey" x1="800" x2="800" y1="105" y2="70" /><g style="font-size:1.0em;color:black"><text x="764" y="95">zzz</text></g><line stroke="grey" x1="850" x2="850" y1="100" y2="1200" /><g style="font-size:1.0em;color:black"><text x="838" y="70">Events</text></g><circle cx="850" cy="1158.955223880597" fill="white" r="5.0" stroke="grey" /><line stroke="grey" x1="855" x2="875" y1="1158" y2="1158" /><g style="font-size:0.6em;color:black"><text x="874" y="1161">conceived</text></g><circle cx="850" cy="100.0" fill="white" r="5.0" stroke="grey" /><line stroke="grey" x1="855" x2="875" y1="100" y2="100" /><g style="font-size:0.6em;color:black"><text x="874" y="103">miscarried</text></g><polygon class="pastel1" points="50,1158 800,1158 800,100 50,100" /><g class="middle" style="font-size:0.7em;color:black"><text x="425" y="634">womb</text></g><polygon class="u2" points="752,1158 764,1158 764,100 752,100" /><g class="middle" style="font-size:1.0em;color:black"><text x="758" y="634">m</text></g><polygon class="u2" points="764,1158 776,1158 776,100 764,100" /><g class="middle" style="font-size:1.0em;color:black"><text x="770" y="634">o</text></g><polygon class="u2" points="776,1158 788,1158 788,100 776,100" /><g class="middle" style="font-size:1.0em;color:black"><text x="782" y="634">m</text></g><polygon class="g3" points="290,592 350,592 350,100 290,100" /><g class="vert middle" style="font-size:1.0em;color:black"><text x="320" y="346">Prenatal appointments</text></g><polygon class="u2" points="561,781 621,781 621,190 561,190" /><g class="vert middle" style="font-size:1.0em;color:black"><text x="591" y="485">Baby Einstein</text></g></svg>